HIERARCHY
ROOT Hips
{
	OFFSET -3.958830 18.904000 13.208200
	CHANNELS 6 Xposition Yposition Zposition Zrotation Yrotation Xrotation 
	JOINT LHipJoint
	{
		OFFSET 0.000000 0.000000 0.000000
		CHANNELS 3 Zrotation Yrotation Xrotation
		JOINT LeftUpLeg
		{
			OFFSET 1.800000 -1.400000 0.085000
			CHANNELS 3 Zrotation Yrotation Xrotation
			JOINT LeftLeg
			{
				OFFSET 2.215000 -6.000000 0.000000
				CHANNELS 3 Zrotation Yrotation Xrotation
				JOINT LeftFoot
				{
					OFFSET 2.500000 -6.900000 0.000000
					CHANNELS 3 Zrotation Yrotation Xrotation
					JOINT LeftToeBase
					{
						OFFSET 0.200000 -0.500000 1.950000
						CHANNELS 3 Zrotation Yrotation Xrotation
						End Site
						{
							OFFSET 0.000000 0.000000 0.000000
						}
					}
				}
			}
		}
	}
	JOINT RHipJoint
	{
		OFFSET 0.000000 0.000000 0.000000
		CHANNELS 3 Zrotation Yrotation Xrotation
		JOINT RightUpLeg
		{
			OFFSET -1.800000 -1.400000 0.085000
			CHANNELS 3 Zrotation Yrotation Xrotation
			JOINT RightLeg
			{
				OFFSET -2.215000 -6.000000 0.000000
				CHANNELS 3 Zrotation Yrotation Xrotation
				JOINT RightFoot
				{
					OFFSET -2.500000 -6.900000 0.000000
					CHANNELS 3 Zrotation Yrotation Xrotation
					JOINT RightToeBase
					{
						OFFSET -0.200000 -0.500000 1.950000
						CHANNELS 3 Zrotation Yrotation Xrotation
						End Site
						{
							OFFSET 0.000000 0.000000 0.000000
						}
					}
				}
			}
		}
	}
	JOINT LowerBack
	{
		OFFSET 0.000000 0.000000 0.000000
		CHANNELS 3 Zrotation Yrotation Xrotation
		JOINT Spine
		{
			OFFSET -0.087000 1.940000 -0.288900
			CHANNELS 3 Zrotation Yrotation Xrotation
			JOINT Spine1
			{
				OFFSET 0.000000 1.950000 0.060000
				CHANNELS 3 Zrotation Yrotation Xrotation
				JOINT Neck
				{
					OFFSET 0.000000 0.000000 0.000000
					CHANNELS 3 Zrotation Yrotation Xrotation
					JOINT Neck1
					{
						OFFSET 0.000000 1.600000 0.340000
						CHANNELS 3 Zrotation Yrotation Xrotation
						JOINT Head
						{
							OFFSET 0.000000 1.667000 -0.240000
							CHANNELS 3 Zrotation Yrotation Xrotation
							End Site
							{
								OFFSET 0.000000 0.000000 0.000000
							}
						}
					}
				}
				JOINT LeftShoulder
				{
					OFFSET 0.000000 0.000000 0.000000
					CHANNELS 3 Zrotation Yrotation Xrotation
					JOINT LeftArm
					{
						OFFSET 2.700000 1.550000 -0.730000
						CHANNELS 3 Zrotation Yrotation Xrotation
						JOINT LeftForeArm
						{
							OFFSET 5.450000 0.000000 0.000000
							CHANNELS 3 Zrotation Yrotation Xrotation
							JOINT LeftHand
							{
								OFFSET 3.450000 0.000000 0.000000
								CHANNELS 3 Zrotation Yrotation Xrotation
								JOINT LeftHandIndex1
								{
									OFFSET 0.750000 0.000000 0.000000
									CHANNELS 3 Zrotation Yrotation Xrotation
									End Site
									{
										OFFSET 0.000000 0.000000 0.000000
									}
								}
							}
						}
					}
				}
				JOINT RightShoulder
				{
					OFFSET 0.000000 0.000000 0.000000
					CHANNELS 3 Zrotation Yrotation Xrotation
					JOINT RightArm
					{
						OFFSET -2.700000 1.550000 -0.730000
						CHANNELS 3 Zrotation Yrotation Xrotation
						JOINT RightForeArm
						{
							OFFSET -5.450000 0.000000 0.000000
							CHANNELS 3 Zrotation Yrotation Xrotation
							JOINT RightHand
							{
								OFFSET -3.450000 0.000000 0.000000
								CHANNELS 3 Zrotation Yrotation Xrotation
								JOINT RightHandIndex1
								{
									OFFSET -0.750000 0.000000 0.000000
									CHANNELS 3 Zrotation Yrotation Xrotation
									End Site
									{
										OFFSET 0.000000 0.000000 0.000000
									}
								}
							}
						}
					}
				}
			}
		}
	}
}
MOTION
Frames: 10
Frame Time: 0.016667
-0.364200 16.134410 -2.016180 -4.296893 -22.618721 4.541486 -15.806288 9.454628 6.481530 29.048534 -3.935533 -41.556896 -47.078862 27.101746 30.719416 1.465941 12.283474 0.538646 0.818120 0.331820 0.847390 18.395777 -6.946589 4.259237 -32.050401 4.392538 -40.613874 32.941733 -19.753877 32.566644 -1.266095 -8.654617 1.380719 0.144180 0.070430 0.461910 -3.457788 -2.547974 -10.164686 16.315418 -0.467124 30.466033 6.258346 3.065817 4.782608 -1.867982 -4.160533 -8.813701 -9.208114 4.712951 33.984072 -12.807890 10.005860 -7.137170 -18.180420 -11.020773 1.294177 -1.757182 -3.888007 -6.234655 54.177076 -50.644613 -22.453986 -3.593906 2.924527 0.447610 0.229390 0.057710 0.287400 21.708627 16.313266 6.693541 26.557468 11.095482 -3.181344 -14.912177 10.634228 -2.084905 2.271053 -1.791168 0.016020 -0.086670 -0.361640 -0.333790 
-0.367620 15.971010 -2.088870 -4.620502 -23.724585 3.692994 -15.986735 9.358483 6.644837 31.232407 -2.219177 -41.709486 -51.193634 28.303656 28.780202 1.600008 12.440316 0.515294 0.747300 0.258610 0.800920 18.294756 -6.421560 4.469928 -34.875197 4.785627 -40.957572 37.571530 -20.736764 31.273181 -1.374183 -8.965892 1.310649 0.079960 0.081800 0.467760 -3.126949 -3.122672 -10.419244 16.201266 0.124506 34.587027 7.032816 4.040878 5.331503 -0.879850 -3.748245 -9.731528 -8.367251 4.506074 34.487586 -13.112930 9.994920 -6.379100 -18.619872 -11.964034 1.838306 4.996432 1.145252 -4.802297 43.686100 -43.860339 -14.021923 -3.708276 3.127162 0.439870 0.234850 0.052830 0.262580 20.297024 17.769774 7.903367 21.850244 9.923140 -3.307316 -16.126224 9.368199 -1.888647 2.313236 -1.767880 0.024690 -0.096970 -0.320520 -0.324460 
-0.366970 15.828770 -2.129200 -4.939155 -24.275371 3.462358 -16.090367 9.187122 6.740319 32.897837 -0.951068 -42.131990 -53.519331 29.404476 28.110248 1.687098 12.602358 0.481815 0.705440 0.205890 0.768560 18.267134 -6.051106 4.664479 -37.170860 4.879739 -41.911844 41.146943 -21.878618 30.806711 -1.469182 -9.296763 1.223420 0.043020 0.100250 0.482450 -3.010532 -3.340394 -10.584023 16.551430 0.351962 36.793434 7.415222 4.459927 6.265520 -0.427350 -3.421683 -10.487393 -7.507026 4.143576 34.105963 -12.658520 9.545120 -5.362330 -17.580027 -12.200071 2.630509 6.660771 3.971848 -3.677683 38.397598 -37.840512 -9.862445 -3.770261 3.234150 0.417770 0.250910 0.030140 0.242550 18.403292 18.239028 8.471217 19.378078 8.699028 -3.586622 -16.661095 10.895247 -2.003342 2.290954 -1.776478 0.034920 -0.119010 -0.288060 -0.317410 
-0.365100 15.737280 -2.143720 -5.294985 -24.055501 2.650980 -16.086080 9.120636 6.703665 33.413627 -0.609023 -41.644395 -53.562457 30.478675 29.248165 1.768878 12.794205 0.436531 0.721320 0.202950 0.795200 18.285102 -6.008251 4.737510 -38.208909 4.846473 -41.754417 43.048451 -22.871822 31.025675 -1.557884 -9.587260 1.113625 0.032820 0.086770 0.535160 -3.049293 -3.203626 -10.609291 17.851630 -0.087024 38.188642 6.585559 4.417363 7.986588 0.356770 -2.799553 -11.546593 -5.896551 3.313992 33.458384 -13.207590 9.542380 -4.200850 -16.571933 -13.337392 3.498258 5.516077 5.610600 -4.106867 40.107290 -34.317517 -9.505816 -3.800538 3.318571 0.389340 0.269090 0.034560 0.243420 15.815036 19.314422 9.337994 19.945241 7.100910 -4.201064 -17.400458 14.058161 -2.486146 2.237371 -1.876453 0.071080 -0.189240 -0.308360 -0.315030 
-0.384060 15.689060 -2.128940 -5.240081 -23.396115 2.427432 -16.046579 9.025253 6.691664 33.636714 -0.687385 -41.589977 -53.385937 31.126894 30.154069 1.842485 12.889147 0.412440 0.749930 0.249680 0.789450 18.327605 -6.073513 4.755862 -38.616261 4.486596 -41.578233 43.582071 -23.559229 31.361981 -1.600734 -9.765472 1.046407 0.049800 0.080730 0.567590 -3.157071 -2.933057 -10.606574 18.201519 -0.554604 37.687831 5.919279 3.910821 8.531323 0.517883 -2.624543 -11.767227 -5.279803 3.245346 33.177432 -12.916760 9.602160 -3.276370 -16.106542 -13.585340 3.749034 2.445381 5.986306 -5.243285 45.396899 -35.381178 -11.809622 -3.786525 3.372325 0.338050 0.283130 0.037080 0.263880 15.038858 19.570194 9.363444 21.445582 6.964658 -4.690235 -16.692360 17.853878 -2.919959 2.177246 -1.949749 0.117160 -0.242400 -0.336190 -0.287440 
-0.426000 15.703740 -2.090950 -4.394123 -22.139555 1.623343 -16.025914 9.192005 6.624373 32.870655 -1.483316 -40.781739 -52.795094 30.906681 30.633896 1.879192 12.797673 0.393693 0.796790 0.339190 0.790210 18.306365 -6.225025 4.632696 -38.105319 4.084148 -40.330343 41.839405 -23.682475 32.448899 -1.606198 -9.780530 1.028626 0.062540 0.019510 0.573510 -3.070624 -3.045410 -10.554265 16.806752 -0.235343 37.201266 6.132644 3.729627 7.920081 0.296709 -2.542267 -11.390757 -5.473095 3.102513 34.213541 -12.183720 9.179000 -4.315180 -16.862432 -13.832585 3.286062 1.340188 4.043947 -6.185325 47.076495 -39.864551 -14.282900 -3.698221 3.365626 0.319390 0.239820 0.078340 0.259420 16.269473 19.580497 9.254418 22.409761 6.558276 -5.117241 -14.274934 21.134134 -2.819365 2.137576 -1.939030 0.192400 -0.280640 -0.354690 -0.261140 
-0.454570 15.787730 -2.055500 -3.338692 -20.250835 -0.068753 -15.934658 9.506246 6.453771 31.071225 -3.064971 -39.020697 -50.494396 29.740396 31.536644 1.792908 12.663504 0.410670 0.845470 0.385880 0.809270 18.303191 -6.595692 4.408070 -36.861409 3.663120 -38.323270 37.962100 -23.326749 34.532911 -1.573290 -9.710344 1.056394 0.091730 -0.003090 0.523800 -3.063002 -3.095678 -10.403624 16.008166 -0.319019 36.626740 5.933185 3.287771 8.450959 -0.108209 -3.027700 -11.673491 -7.085873 3.002275 36.464149 -10.469990 7.652700 -5.561330 -17.092904 -15.549264 3.205850 -0.368183 0.536607 -7.392825 44.016199 -43.078225 -14.972071 -3.576257 3.261140 0.383510 0.179340 0.102330 0.276660 17.383567 21.027918 9.763541 23.922562 6.154932 -5.680830 -11.169745 22.951422 -2.493880 2.078497 -1.877288 0.174510 -0.215400 -0.371250 -0.266990 
-0.466250 15.907660 -1.991790 -2.110327 -18.026622 -0.677672 -15.783615 9.774377 6.228382 28.079849 -5.012531 -37.858483 -46.891034 27.981914 32.692003 1.697698 12.431916 0.465639 0.830360 0.378640 0.753340 18.346981 -7.120635 4.178229 -35.306670 2.886513 -37.065312 32.725975 -22.274358 36.464102 -1.444442 -9.518347 1.111618 0.087250 0.033970 0.514720 -3.211134 -2.847899 -10.199919 15.379575 -0.348443 33.784636 5.931582 2.663006 8.904259 -1.066960 -3.609692 -11.904120 -8.907710 2.751194 38.126353 -9.274530 6.116350 -4.696160 -16.798057 -17.011969 3.232826 -3.755975 -3.774802 -8.081037 37.440240 -46.057170 -14.018932 -3.526586 3.235348 0.374040 0.184850 0.080310 0.288840 19.101520 22.005008 10.036122 26.570809 5.601589 -6.547249 -8.200721 25.127582 -2.301231 2.017789 -1.870421 0.175450 -0.188350 -0.345700 -0.240410 
-0.455590 16.035080 -1.912680 -1.866446 -16.165569 -0.311855 -15.590830 9.921715 6.056960 25.880347 -6.375888 -37.202132 -42.864047 26.492495 34.233976 1.653030 12.212961 0.569355 0.798140 0.362030 0.672660 18.453769 -7.716370 3.899336 -32.288497 2.459400 -36.948488 26.583906 -20.762837 38.896325 -1.273697 -9.219246 1.224786 0.082890 0.123310 0.478440 -3.558359 -2.283419 -9.959973 16.047357 -0.757244 29.468979 5.636042 1.904568 9.575953 -2.245963 -4.096214 -12.214024 -10.338219 2.990853 39.208965 -6.929590 4.921420 -1.782780 -15.304345 -18.214942 3.614614 -9.237268 -7.875871 -8.323520 28.906342 -48.898668 -12.013445 -3.484779 3.267162 0.305930 0.217560 0.015700 0.334060 19.988033 22.478772 9.988824 29.979932 6.080684 -6.311755 -4.159778 24.632740 -1.790093 2.030816 -1.873733 0.163790 -0.150610 -0.346200 -0.185240 
-0.446870 16.180010 -1.834470 -1.790744 -15.386226 0.117539 -15.447365 10.216855 5.835398 23.421351 -7.246507 -36.385223 -37.388099 24.904472 36.566523 1.489643 11.992774 0.646860 0.742810 0.300520 0.621450 18.502094 -8.354510 3.551122 -27.947583 2.667846 -37.111226 19.437129 -18.095955 41.156538 -1.048775 -8.617417 1.430109 0.080070 0.215800 0.443780 -3.759476 -1.808850 -9.656945 15.465347 -0.109035 25.348774 6.236873 1.849956 10.125457 -3.232668 -3.533151 -11.931154 -9.510637 2.658701 39.915276 -5.665970 4.492760 -0.159960 -13.734801 -18.840957 3.718584 -16.201843 -13.023924 -7.652797 19.678270 -50.064964 -9.158978 -3.525769 3.252227 0.280210 0.267630 -0.054110 0.338530 20.352655 22.211447 9.391672 34.434179 7.388726 -6.071123 -0.365933 24.196850 -1.389900 2.013061 -1.833199 0.104330 -0.084920 -0.306940 -0.179580 
